<svg width="128" height="128" viewBox="0 0 128 128" fill="none" xmlns="http://www.w3.org/2000/svg">
<rect width="128" height="128" fill="white"/>
<path d="M18.4177 126.809L18.1318 127.5H18.8797H40.4579H40.7865L40.9169 127.198L95.3844 1.1984L95.6863 0.5H94.9254H70.911H70.5768L70.449 0.80885L48.2923 54.3627L26.4775 0.811369L26.3507 0.5H26.0144H2H1.22217L1.54514 1.20761L37.6505 80.3117L18.4177 126.809Z" fill="white" stroke="black"/>
<path d="M28.3616 126.809L28.0757 127.5H28.8236H50.4018H50.7304L50.8607 127.198L105.328 1.1984L105.63 0.5H104.869H80.8549H80.5206L80.3929 0.80885L58.2362 54.3627L36.4214 0.811369L36.2945 0.5H35.9583H11.9439H11.166L11.489 1.20761L47.5944 80.3117L28.3616 126.809Z" fill="white" stroke="black"/>
<path d="M38.3054 126.809L38.0196 127.5H38.7675H60.3457H60.6742L60.8046 127.198L115.272 1.1984L115.574 0.5H114.813H90.7988H90.4645L90.3367 0.80885L68.18 54.3627L46.3652 0.811369L46.2384 0.5H45.9022H21.8878H21.1099L21.4329 1.20761L57.5383 80.3117L38.3054 126.809Z" fill="white" stroke="black"/>
<path d="M49.4923 126.809L49.2064 127.5H49.9543H71.5325H71.8611L71.9914 127.198L126.459 1.1984L126.761 0.5H126H101.986H101.651L101.524 0.80885L79.3669 54.3627L57.5521 0.811369L57.4252 0.5H57.089H33.0746H32.2968L32.6197 1.20761L68.7251 80.3117L49.4923 126.809Z" fill="white" stroke="black"/>
</svg>
